<?xml version="1.0" standalone="no"?>
<!DOCTYPE svg PUBLIC "-//W3C//DTD SVG 20010904//EN"
 "http://www.w3.org/TR/2001/REC-SVG-20010904/DTD/svg10.dtd">
<svg version="1.0" xmlns="http://www.w3.org/2000/svg"
 width="512.000000pt" height="512.000000pt" viewBox="0 0 512.000000 512.000000"
 preserveAspectRatio="xMidYMid meet">

<g transform="translate(0.000000,512.000000) scale(0.100000,-0.100000)"
fill="#000000" stroke="none">
<path d="M2299 5010 c-517 -91 -942 -430 -1149 -914 l-47 -110 -82 -27 c-154
-51 -266 -117 -381 -225 -98 -92 -162 -179 -221 -299 -74 -150 -101 -267 -102
-440 0 -146 11 -221 54 -346 54 -160 174 -333 309 -446 l75 -63 3 390 2 390
1800 0 1800 0 0 -435 0 -435 62 37 c85 52 215 183 266 268 112 190 147 413 97
622 -9 38 -40 115 -68 173 -45 92 -62 117 -146 201 -129 129 -257 201 -413
231 l-66 12 -6 66 c-50 488 -350 941 -784 1181 -159 88 -356 154 -537 179
-114 16 -347 11 -466 -10z"/>
<path d="M1060 2070 l0 -550 675 0 675 0 0 -247 0 -248 -67 -35 c-87 -44 -170
-127 -208 -207 l-30 -63 -1052 0 -1053 0 0 -150 0 -150 1049 0 1050 0 37 -71
c87 -166 240 -259 424 -259 184 0 337 94 425 261 l36 69 1050 0 1049 0 0 150
0 150 -1052 0 -1053 0 -30 62 c-39 81 -122 165 -207 208 l-68 35 0 248 0 247
675 0 675 0 0 550 0 550 -1500 0 -1500 0 0 -550z m600 0 l0 -150 -150 0 -150
0 0 150 0 150 150 0 150 0 0 -150z m600 0 l0 -150 -150 0 -150 0 0 150 0 150
150 0 150 0 0 -150z m1500 0 l0 -150 -485 0 -485 0 0 150 0 150 485 0 485 0 0
-150z"/>
</g>
</svg>
